<?xml version="1.0" encoding="UTF-8"?>
<svg version="1.1" viewBox="0 0 2000 2000" width="1280" height="1280" xmlns="http://www.w3.org/2000/svg">
<path transform="translate(0)" d="m0 0h2e3v2e3h-2e3z" fill="#FAFAFA"/>
<path transform="translate(456,746)" d="m0 0h31v1h-7l10 16 18 27 10 16 10 15 44 68 16 25 22 34 3 1-15-42-18-52-13-37 1-3 16 45 17 48 14 39v2h7l-17-48-17-49-14-40 1-3 16 45 17 48 16 45v2l16-1 65-2h12l-26-88-7-24 1-4 19 63 15 50v3h7l-17-57-22-75 1-4 22 73 18 61v2l10-1 67-2 9-1-31-123 1-4 21 81 12 46 6 1-16-64-20-79 1-4 21 81 16 62 1 3 46-1 37-1-4-15-17-72-8-35v-5l2 4 19 80 10 42h6l-20-85-8-35v-5l2 4 20 84 8 33v5l55-2 41-1-3-13-13-68-4-22v-6h1l18 93 3 15h6l-13-68-8-43v-6h1l20 103 2 11v4l16-1 68-2h9l-2-8-16-100v-6h1l9 53 9 55v6h7l-9-57-11-63-1-11h1l11 59 11 69v3l15-1 67-2h11l-4-25-12-84v-7h1l11 73 6 42 6 1-12-86-7-46v-7h1l10 64 10 69v6l13-1 70-2-3-32-5-59v-12h1l9 100v3h7l-2-15-6-68-2-25v-12h1l9 99 2 20h21l66-2-3-58-1-23v-25h1l4 76 1 16v14h7l-3-52-2-45v-22h1l5 95 1 24 58-2 34-1 1-1-4-91v-21h1l5 101v12h7l-2-35-2-48v-23h1l5 100v6l55-2 36-1v-6h1v6l24-1 1-7h1v8l9-1 5 2 3 6-1 7-4 4-2 1h-12l-1 4v-4l-12 1h-13l-1 4v-4l-55 2h-33l3 50 6 113 1 3 60-7h3l1-17 2-21h1v11l-2 22-1 5 21-3h4l2-27 4-42h1v11l-5 54-1 4 9-1 5 3 1 2v9l-5 5-10 2h-2v9l-8 85-3 8-6 4-276 50-3 1 3 6v7l-3 6-4 3-21 4-358 63-115 20-24 4-3 1-2 2v-2l-30 5h-5l-1 2-1-1-14 4-13 7-11 10-11 14-14 18-13 18-14 18-12 16-10 13-16 21-14 19h22l12-16 29-38 2-1-2 4-14 19-14 18-12 16-6 10-4 13-1 11 2 13 5 12 8 11 10 8 10 5 11 3 22 1-1-8v-16h-19l-10-4-8-7-5-10-1-3v-12l3-8 7-11 12-15 12-16 14-18 9-12 2-1-2 4-14 19-14 18-8 11 1041 1 142 1v1l-1186 1-12 16-3 7-1 10 3 10 4 6 7 6 7 3 20 1v-12l1-1h132v12l34-1 410-4h71v2l-66 1-430 4h-19l1 23h36l401-4h78v2l-74 1-441 4v12l-1 2h82l342-3h103v1l-603 6h-16v24l64-1 558-5h37v1h-27v8l-8 7-7 9-5 10-3 10-1 16 3 16 7 14 8 10 3 2 1-1 2-14 5-15 7-13 10-13 12-11 14-8 3-1 1 31-8 7-9 12-5 12-2 7-1 15 3 16 8 16 10 11 11 7 12 5 11 2h10l15-3 16-8 10-9 9-14 4-11 1-5v-20l-3-12-6-11 1-5 10-24h3l11 14 8 16 4 15 1 6v21l-3 15-5 13-6 11-8 10-10 10-14 9-13 6-16 4h-27l-16-4-14-6-13-9-7-6-9-11-8-13-2-7-5-1-13-7-10-8-11-11-9-14-6-14-3-12-1-8v-15l3-17 6-16 9-14h-77l-389 4-41 1 9 14 6 15 3 13v27l-4 16-5 12-7 11-9 10-7 7-14 9-16 7-15 3h-23l-2 6-7 11-11 12-10 8-14 8-15 5-11 2h-21l-18-4-14-6-12-8-12-11-9-12-8-16-4-14-1-7v-21l3-15 5-13 7-12 8-10 9-9 14-9 4-2-11-2-8-7-2-4-1-13h-19l-16-4-12-7-10-10-7-12-3-9-1-6v-17l3-12 6-11 32-42 1-2h-444v-1l142-1 305-1 12-16 16-21 15-20 14-18 9-12 48-63 8-10 10-9-32 5h-10l-6-4-6-7-11-19-15-28-17-33-10-19-16-32-4-9v-2h2l32 64 10 19 12 23 12 22 10 16 6 5 2 1h9l110-19 809-145 6-3 3-9 8-85 1-7-25 3-1 18-5 54-1 7-13 3-370 67-178 32-173 31-130 23-35 6h-7l-10-16-17-32-39-78v-2h-7v-1h9l26 52 8 17 10 19 14 26 7 12 11-1 53-9v-3l-19-54-17-48-6-17v-3l-16 2h-9v-1l949-111 5-3 1-2v-6l-4-3-37 4-574 67h-8l2-2 34-4h7l-7-32-23-115-11-57v-4l-12 1-35 1h-25l2-2 677-20 28-1 4-3 1-5-3-5h-37l-867 25-143 4h-35v-1h13l-10-16-16-25-11-17-16-25-15-23-13-20-33-51-17-26z" fill="#1A2E34"/>
<path transform="translate(1623,1145)" d="m0 0 1 2-6 64-3 8-6 4-276 50-3 1 3 6v7l-3 6-4 3-21 4-358 63-115 20-24 4-3 1-2 2v-2l-30 5h-5l-1 2-1-1-14 4-13 7-11 10-11 14-14 18-13 18-14 18-12 16-10 13-16 21-14 19h22l12-16 29-38 2-1-2 4-14 19-14 18-12 16-6 10-4 13-1 11 2 13 5 12 8 11 10 8 10 5 11 3 22 1-1-8v-16h-19l-10-4-8-7-5-10-1-3v-12l3-8 7-11 12-15 12-16 14-18 9-12 2-1-2 4-14 19-14 18-8 11 1041 1 142 1v1l-1186 1-12 16-3 7-1 10 3 10 4 6 7 6 7 3 20 1v-12l1-1h132v12l34-1 410-4h71v2l-66 1-430 4h-19l1 23h36l401-4h78v2l-74 1-441 4v12l-1 2h82l342-3h103v1l-603 6h-16v24l64-1 558-5h37v1h-27v8l-8 7-7 9-5 10-3 10-1 16 3 16 7 14 8 10 3 2 1-1 2-14 5-15 7-13 10-13 12-11 14-8 3-1 1 31-8 7-9 12-5 12-2 7-1 15 3 16 8 16 10 11 11 7 12 5 11 2h10l15-3 16-8 10-9 9-14 4-11 1-5v-20l-3-12-6-11 1-5 10-24h3l11 14 8 16 4 15 1 6v21l-3 15-5 13-6 11-8 10-10 10-14 9-13 6-16 4h-27l-16-4-14-6-13-9-7-6-9-11-8-13-2-7-5-1-13-7-10-8-11-11-9-14-6-14-3-12-1-8v-15l3-17 6-16 9-14h-77l-389 4-41 1 9 14 6 15 3 13v27l-4 16-5 12-7 11-9 10-7 7-14 9-16 7-15 3h-23l-2 6-7 11-11 12-10 8-14 8-15 5-11 2h-21l-18-4-14-6-12-8-12-11-9-12-8-16-4-14-1-7v-21l3-15 5-13 7-12 8-10 9-9 14-9 4-2-11-2-8-7-2-4-1-13h-19l-16-4-12-7-10-10-7-12-3-9-1-6v-17l3-12 6-11 32-42 1-2h-444v-1l142-1 305-1 12-16 16-21 15-20 14-18 9-12 48-63 8-10 10-9-32 5h-10l-6-4-6-7-11-19-15-28-17-33-10-19-16-32-4-9v-2h2l32 64 10 19 12 23 12 22 10 16 6 5 2 1h9l110-19 809-145 6-3 3-9 6-63z" fill="#FC725B"/>
<path transform="translate(456,746)" d="m0 0h31v1h-7l10 16 18 27 10 16 10 15 44 68 16 25 22 34 3 1-15-42-18-52-13-37 1-3 16 45 17 48 14 39v2h7l-17-48-17-49-14-40 1-3 16 45 17 48 16 45v2l16-1 65-2h12l-26-88-7-24 1-4 19 63 15 50v3h7l-17-57-22-75 1-4 22 73 18 61v2l10-1 67-2 9-1-31-123 1-4 21 81 12 46 6 1-16-64-20-79 1-4 21 81 16 62 1 3 46-1 37-1-4-15-17-72-8-35v-5l2 4 19 80 10 42h6l-20-85-8-35v-5l2 4 20 84 8 33v5l55-2 41-1-3-13-13-68-4-22v-6h1l18 93 3 15h6l-13-68-8-43v-6h1l20 103 2 11v4l16-1 68-2h9l-2-8-16-100v-6h1l9 53 9 55v6h7l-9-57-11-63-1-11h1l11 59 11 69v3l15-1 67-2h11l-4-25-12-84v-7h1l11 73 6 42 6 1-12-86-7-46v-7h1l10 64 10 69v6l13-1 70-2-3-32-5-59v-12h1l9 100v3h7l-2-15-6-68-2-25v-12h1l9 99 2 20h21l66-2-3-58-1-23v-25h1l4 76 1 16v14h7l-3-52-2-45v-22h1l5 95 1 24 58-2 34-1 1-1-4-91v-21h1l5 101v12h7l-2-35-2-48v-23h1l5 100v6l55-2 36-1v-6h1v6l24-1 1-7h1v8l9-1 5 2 3 6-1 7-4 4-2 1h-12l-1 4v-4l-12 1h-13l-1 4v-4l-55 2h-33l1 13v18l-2-1-1-29h-7l1 6 5 96v19l-2-1-5-100v-20l-93 3 6 92 5 70v12l17-2h9v2l-437 51h-8l2-2 34-4h7l-7-32-23-115-11-57v-4l-12 1-35 1h-25l2-2 677-20 28-1 4-3 1-5-3-5h-37l-867 25-143 4h-35v-1h13l-10-16-16-25-11-17-16-25-15-23-13-20-33-51-17-26z" fill="#1A2E34"/>
<path transform="translate(1007,956)" d="m0 0h12l16 81 25 124v3l-43 5v2l-175 20-141 16h-10v-1l12-1-7-19-21-60-17-48-13-37-11-18-32-50-3-4-14-1v-1l330-10h57z" fill="#1A2E34"/>
<path transform="translate(1352,1596)" d="m0 0h132l1 11h26l8 4 3 5v11l-5 6-4 2-28 1v10h50l1 5h5v1h-5v25h5v1h-5v21l-11 27-10 24 1 4 6 13 2 9v20l-4 14-7 12-9 10-10 7-11 5-15 3h-10l-14-3-16-8-12-11-7-11-4-9-3-16 1-15 5-15 7-11 6-7 6-5-1-30-13 7-13 11-9 11-8 14-5 13-2 9-1 9-2 2-7-6-9-14-4-10-2-13 1-16 5-15 8-12 9-9h2v-8l-568 5h-64v-24l16-1 509-5-351 3h-83l1-3 1-12 9-1 432-4h74v-2l-180 2-299 3h-36l-1-1v-23l19-1 430-4h66v-14z" fill="#FC715B"/>
<path transform="translate(1073,1179)" d="m0 0h7v2h-5l21 103v3l21-4h4v2l-195 35-157 28-75 13h-7l-10-16-17-32-39-78v-2h-7v-1h9l26 52 8 17 10 19 14 26 7 12 11-1 53-9v-3l-19-54-17-48-6-17v-3l-16 2h-9v-1l251-29z" fill="#1A2E34"/>
<path transform="translate(1366,1678)" d="m0 0h37v1h-27v8l-8 7-7 9-5 10-3 10-1 16 3 16 7 14 8 10 3 2 1-1 2-14 5-15 7-13 10-13 12-11 14-8 3-1 1 31-8 7-9 12-5 12-2 7-1 15 3 16 8 16 10 11 11 7 12 5 11 2h10l15-3 16-8 10-9 9-14 4-11 1-5v-20l-3-12-6-11 1-5 10-24h3l11 14 8 16 4 15 1 6v21l-3 15-5 13-6 11-8 10-10 10-14 9-13 6-16 4h-27l-16-4-14-6-13-9-7-6-9-11-8-13-2-7-5-1-13-7-10-8-11-11-9-14-6-14-3-12-1-8v-15l3-17 6-16 9-14h-77l-389 4-41 1 9 14 6 15 3 13v27l-4 16-5 12-7 11-9 10-7 7-14 9-16 7-15 3h-23l-2 6-7 11-11 12-10 8-14 8-15 5-11 2h-21l-18-4-14-6-12-8-12-11-9-12-8-16-4-14-1-7v-21l3-15 5-13 7-12 8-10 9-9 14-9 6-2 1 22v9l-10 9-9 14-4 11-1 5v21l5 16 7 11 10 10 10 6 9 4 9 2h19l12-3 12-6 11-9 9-13 5-13 2-13-1-14-5-15-4-7 3-9 8-19h3l8 9 8 14 6 16 3 16v13l-1 2 17-2 12-4 11-6 8-7 7-10 5-10 3-11v-21l-4-14-5-9 3-9 6-14-48 1h-31v-2l64-1z" fill="#1A2E34"/>
<path transform="translate(1322,1274)" d="m0 0h5l3 4 1 7-3 7-7 3-432 76-111 19-18 3-13 5-10 6-10 9-10 12-15 20-14 19-14 18-9 12-16 21-15 20-14 18-9 12-32 42-6 9-3 7v16l6 12 8 6 7 3 20 1v24h-20l-12-3-13-7-10-10-7-12-4-14v-17l4-13 6-11 12-15 12-16 10-13 96-126 15-20 9-11 5-6 10-8 6-3 492-88z" fill="#FBFBFB"/>
<path transform="translate(1007,956)" d="m0 0h12l16 81 25 124v3l-76 9h-7l-18-71-24-96-11-46v-1l13-1z" fill="#FBFBFB"/>
<path transform="translate(1623,1145)" d="m0 0 1 2-6 64-3 8-6 4-276 50-3 1 3 6v7l-3 6-4 3-21 4-358 63-115 20-24 4-3 1-2 2v-2l-30 5h-5l-1 2-1-1-14 4-13 7-11 10-11 14-14 18-13 18-14 18-12 16-10 13-16 21-14 19h22l12-16 29-38 2-1-2 4-14 19-14 18-12 16-6 10-4 13-1 11 2 13 5 12 8 11 10 8 10 5 11 3 22 1-1-8v-16h-19l-10-4-8-7-5-10-1-3v-12l3-8 7-11 12-15 12-16 14-18 9-12 2-1-2 4-14 19-14 18-8 11 1041 1 142 1v1l-1186 1-12 16-3 7-1 10 3 10 4 6 7 6 7 3 20 1v-12l1-1h132v12l34-1 410-4h71v2l-66 1-430 4h-19l1 23h36l401-4h78v2l-74 1-441 4v12l-1 2h82l342-3h103v1l-603 6h-16v-6l-37-1-3-6v-4h-18l-14-3-14-7-10-9-8-11-5-14-1-6v-13l3-13 6-12-22 1-9 11-9 12-16 21-12 16-4 11 1 11 4 9 4 5 8 5 4 1 19 1v2h-20l-10-5-6-5-6-12v-16l6-12 14-18 12-16 10-13 16-21 15-20 14-18 9-12 16-21 15-20 14-19 11-14 11-12 11-8 11-5 11-3 90-15 278-49 171-30 21-4 4-4 1-7-3-7-11 1-155 28-167 30-168 30-96 17-9 5-9 8-11 14-29 38-15 20-14 18-12 16-10 13-48 63-13 17-7 10-5 11-2 8v17l4 14 7 12 9 9 16 8 9 2 20 1v2h-19l-16-4-12-7-10-10-7-12-3-9-1-6v-17l3-12 6-11 32-42 1-2h-444v-1l142-1 305-1 12-16 16-21 15-20 14-18 9-12 48-63 8-10 10-9-32 5h-10l-6-4-6-7-11-19-15-28-17-33-10-19-16-32-4-9v-2h2l32 64 10 19 12 23 12 22 10 16 6 5 2 1h9l110-19 809-145 6-3 3-9 6-63z" fill="#BB4B3E"/>
<path transform="translate(797,962)" d="m0 0h23l18 70 21 81 18 68v4l-13 2-62 7-3-8-25-84-22-74-18-61v-3z" fill="#FBFBFB"/>
<path transform="translate(902,959)" d="m0 0h12l20 82 20 81 12 48v5l-77 9-3-7-22-84-21-81-12-46 1-5z" fill="#FBFBFB"/>
<path transform="translate(1216,950)" d="m0 0h7l2 6 24 179v7l-87 10-3-16-18-115-10-65v-3l15-1z" fill="#FBFBFB"/>
<path transform="translate(1111,953)" d="m0 0h10l30 195v5l-30 4-43 5h-8l-37-184-4-22 13-1z" fill="#FBFBFB"/>
<path transform="translate(160,477)" d="m0 0h17l13 4 73 29 35 14 2 1-3 11-3 9-3 8v3l2 2h-4l-6 17v3l16 8 11 8 7 9 11 22 11 23 17 35 11 23 9 19 16 1v1h-22l3-1-21-43-11-23-14-29-13-27-9-10-14-9-10-4-8 22 6 2 12 7 4 5 16 32 11 23 14 29 11 23 9 1v1h-17v-1h5l-11-22-11-23-12-25-18-37-8-7-13-6-1 6-3 7-9-2-106-41-12-6-10-9-7-11-4-12-1-13 3-14 6-12 9-10 11-7z" fill="#FE725B"/>
<path transform="translate(1363,1653)" d="m0 0h40v25l-37 1-558 5h-64v-24l16-1z" fill="#FBFBFB"/>
<path transform="translate(1492,942)" d="m0 0h26l8 158v9l-30 4-52 6h-8l-8-111-4-63 1-1z" fill="#FBFBFB"/>
<path transform="translate(1389,945)" d="m0 0h25l2 26 10 146v4l-75 9h-6l-10-90-8-82v-11z" fill="#FBFBFB"/>
<path transform="translate(1285,948)" d="m0 0h31l3 27 16 156-1 1-68 8h-6l-2-11-21-154-3-25 17-1z" fill="#FBFBFB"/>
<path transform="translate(690,965)" d="m0 0h33l3 8 25 85 26 88 14 47v2l-13 2h-10l-13-20-12-19-56-88-16-25-14-22-16-25-10-28v-3z" fill="#FBFBFB"/>
<path transform="translate(988,367)" d="m0 0 4 2 7 7 7 8 33 33 4-2 34-34 8-7 7-6 28 28-1 4-8 8-8 7-33 33 6 7 18 18 7 8 18 18-2 4-26 26-4-2-20-20-7-8-20-20-4 2-22 22-8 7-18 18-7-6-23-23 6-7 17-17 8-7 19-19-1-4-35-35-7-8-6-7 8-7z" fill="#FF735C"/>
<path transform="translate(1285,1611)" d="m0 0h66l1 12v11l-1 1-179 2-299 3h-36l-1-1v-23l19-1z" fill="#FBFBFB"/>
<path transform="translate(797,1388)" d="m0 0h6l-2 4-21 28-2 4h-2l-1 4h-2l-1 4-7 9h-2l-1 4h-2l-1 4-32 42-7 9-5 5-14 18-26 34-10 14-3 6-1 4v12l4 10 7 8 8 4 4 1 19 1 1 24h-22l-16-5-13-9-8-9-7-14-2-7-1-12 3-16 7-14 12-15 14-19 14-18 2-4-16 21-13 17-12 16h-23l4-7 11-14 48-63 14-19 16-21 9-11 9-10 10-7 11-5 12-3z" fill="#F3F4F4"/>
<path transform="translate(456,746)" d="m0 0h31v1h-7l10 16 18 27 10 16 10 15 44 68 16 25 22 34 3 1-15-42-18-52-13-37 1-3 16 45 17 48 14 39v2h7l-17-48-17-49-14-40 1-3 16 45 17 48 16 45v2l16-1 65-2h12l-26-88-7-24 1-4 19 63 15 50v3h7l-17-57-22-75 1-4 22 73 18 61v2l10-1 67-2 9-1-31-123 1-4 21 81 12 46 6 1-16-64-20-79 1-4 21 81 16 62 1 3 46-1 37-1-4-15-17-72-8-35v-5l2 4 19 80 10 42h6l-20-85-8-35v-5l2 4 20 84 8 33v5l55-2 41-1-3-13-13-68-4-22v-6h1l18 93 3 15h6l-13-68-8-43v-6h1l20 103 2 11v4l16-1 68-2h9l-2-8-16-100v-6h1l9 53 9 55v6h7l-9-57-11-63-1-11h1l11 59 11 69v3l15-1 67-2h11l-4-25-12-84v-7h1l11 73 6 42 6 1-12-86-7-46v-7h1l10 64 10 69v6l13-1 70-2-3-32-5-59v-12h1l9 100v3h7l-2-15-6-68-2-25v-12h1l9 99 2 20h21l66-2-3-58-1-23v-25h1l4 76 1 16v14h7l-3-52-2-45v-22h1l5 95 1 24 58-2h34v2l-763 22-143 4h-35v-1h13l-10-16-16-25-11-17-16-25-15-23-13-20-33-51-17-26z" fill="#1A2E34"/>
<path transform="translate(967,1193)" d="m0 0 5 1 26 101 2 9-6 2-68 12-2-2-16-57-15-56v-1l31-4z" fill="#FBFBFB"/>
<path transform="translate(881,1203)" d="m0 0 2 1 19 71 12 42v3l-49 9-12 2-7-10-13-21-21-70-5-18 12-2z" fill="#FBFBFB"/>
<path transform="translate(1062,1182)" d="m0 0 2 1 6 28 15 73v5l-13 3-56 10h-5l-3-8-25-97-1-5 11-2z" fill="#FBFBFB"/>
<path transform="translate(1244,1161)" d="m0 0h8l3 19 9 69v8l-25 5-56 10-5-22-10-57-3-22 1-1z" fill="#FBFBFB"/>
<path transform="translate(1149,1172)" d="m0 0h5l1 1 8 47 9 50v4l-72 13h-4l-7-32-14-69v-5l31-4z" fill="#FBFBFB"/>
<path transform="translate(1278,1637)" d="m0 0h74l4 10 6 5v1l-444 4h-83l1-3 1-12 9-1z" fill="#FBFBFB"/>
<path transform="translate(1352,1596)" d="m0 0h132l1 11h26l8 4 3 5v11l-5 6-4 2-29 1v10h-81v7h-41l-7-6-3-6-1-7v-37z" fill="#CC4F40"/>
<path transform="translate(775,1685)" d="m0 0h48l-3 9-5 12 2 5 5 12 2 8v21l-4 13-5 10-9 11-11 8-11 5-12 3h-12v-15l-3-16-6-16-6-11-8-10-3-4 10-24 1-20z" fill="#CD4F40"/>
<path transform="translate(1526,1128)" d="m0 0h1l2 29 2 37v15l-25 5-62 11-6-78v-8l11-2z" fill="#FBFBFB"/>
<path transform="translate(1423,1140)" d="m0 0h4l1 4 6 77 2 5-13 3-62 11h-3l-4-31-6-53v-7z" fill="#FBFBFB"/>
<path transform="translate(1329,1151)" d="m0 0h8l6 49 4 34v8l-13 3-56 10h-3l-6-43-6-45v-8z" fill="#FBFBFB"/>
<path transform="translate(757,1217)" d="m0 0 4 4 15 24 24 38 14 22 15 24 2 3v3l-62 11h-6l-4-14-17-48-19-54-2-5v-4z" fill="#FBFBFB"/>
<path transform="translate(1623,1145)" d="m0 0 1 2-6 64-3 8-6 4-276 50-3 1 3 6v7l-3 6-4 3-21 4-358 63-115 20-24 4-3 1-2 2v-2l-30 5h-5l-1 2-1-1-14 4-13 7-11 10-11 14-14 18-13 18-14 18-12 16-10 13-16 21-14 19h22l12-16 29-38 2-1-2 4-14 19-14 18-12 16-6 10-4 13-1 11 2 13 5 12 8 11 10 8 10 5 11 3 21 1v2h-17l-14-3-14-7-10-9-8-11-5-14-1-6v-13l3-13 6-12-22 1-9 11-9 12-16 21-12 16-4 11 1 11 4 9 4 5 8 5 4 1 19 1v2h-20l-10-5-6-5-6-12v-16l6-12 14-18 12-16 10-13 16-21 15-20 14-18 9-12 16-21 15-20 14-19 11-14 11-12 11-8 11-5 11-3 90-15 278-49 171-30 21-4 4-4 1-7-3-7-11 1-155 28-167 30-168 30-96 17-9 5-9 8-11 14-29 38-15 20-14 18-12 16-10 13-48 63-13 17-7 10-5 11-2 8v17l4 14 7 12 9 9 16 8 9 2 20 1v2h-19l-16-4-12-7-10-10-7-12-3-9-1-6v-17l3-12 6-11 32-42 1-2h-444v-1l142-1 305-1 12-16 16-21 15-20 14-18 9-12 48-63 8-10 10-9-32 5h-10l-6-4-6-7-11-19-15-28-17-33-10-19-16-32-4-9v-2h2l32 64 10 19 12 23 12 22 10 16 6 5 2 1h9l110-19 809-145 6-3 3-9 6-63z" fill="#1A2E34"/>
<path transform="translate(621,1555)" d="m0 0h22l-2 6-4 9-2 10v13l3 13 5 10 7 9 8 7 14 7 14 3 18 1 3 9 1 2h-97v5h-19l-7-3-8-6-5-9-2-8 1-10 5-10 11-14 32-42z" fill="#FBFBFB"/>
<path transform="translate(1427,1736)" d="m0 0h1l1 10 2 44 4 11 8 9 10 5 4 1h13l11-4 8-7 5-9 19-44 4 4 5 11 2 9v20l-4 14-7 12-9 10-10 7-11 5-15 3h-10l-14-3-16-8-12-11-7-11-4-9-3-16 1-15 5-15 7-11 6-7z" fill="#FBFBFB"/>
<path transform="translate(635,1744)" d="m0 0h1l1 5 2 48 4 11 6 8 10 6 8 2h9l10-3 9-6 6-9 11-25 9-21 3 1 5 11 3 10 1 14-3 16-5 12-10 13-10 8-12 6-12 3h-19l-12-3-13-7-10-9-7-8-6-12-3-11v-21l4-14 7-12 9-10z" fill="#FBFBFB"/>
<path transform="translate(1073,1179)" d="m0 0h7v2h-5l21 103v3l21-4h4v2l-195 35-45 8h-5l1-2 33-6h4l-14-49-18-67-63 7h-9v-1l31-4zm-11 3-77 9-3 2 22 86 6 22 1 1 11-1 61-11 2-1-1-10-19-93-2-4zm-95 11-69 8-5 1 9 35 21 76 2 5 52-9 22-4 1-3-23-89-5-19z" fill="#1A2E34"/>
<path transform="translate(1594,1120)" d="m0 0h5l-1 16-6 62-25 5-22 4h-3l-2-28-2-38v-14l30-4z" fill="#FBFBFB"/>
<path transform="translate(497,730)" d="m0 0h35l1121 33 19 1 6 5 1 7-3 6-2 1h-17l-1 3v-3h-25l-92-3-19-1v12h-1v-12l-47-1-57-2v6h-1v-6l-41-1-166-5-1 3-1-3-7-1-1 3v-3h-23l-66-2-9-1-1 4v-4h-22l-66-2h-19l-14-1-98-3-2-1-1 3v-3l-9 1-54-2-33-1-2-1-1 4-1-3-7-1-1 3v-3h-21l-64-2-12-1-1 3v-3h-8l-1 2v-2l-43-1-64-2-1 2-1-2-30-1v-1h35l683 20 402 12h31l3-5-2-6-3-2-56-2-1022-31-96-3z" fill="#1A2E34"/>
<path transform="translate(459,747)" d="m0 0h18l7 10 15 23 26 40 22 34 16 25 13 20 16 25 15 23v3h-17l-10-15-32-50-15-23-52-80-22-33z" fill="#FBFBFB"/>
<path transform="translate(766,1393)" d="m0 0v3l-14 18-10 13-16 21-55 72-13 17-12 16h-23l4-7 11-14 48-63 14-19 16-21 9-11 9-10 10-7 11-5z" fill="#FBFBFB"/>
<path transform="translate(162,496)" d="m0 0h17l12 6 7 7 5 11v17l-6 12-7 7-8 4-12 2-11-2-8-4-8-8-4-8-1-3v-17l6-12 7-7z" fill="#CD4F40"/>
<path transform="translate(1117,951)" d="m0 0h31l-2 2h-15l3 16 9 58v7l-2-1-12-78v-2h-6l24 156 7 43v3l-129 15h-8l2-2 34-4h7l-7-32-23-115-11-57v-4l-12 1-35 1h-25l2-2zm-6 2-69 2-13 1 5 27 26 130 10 49 17-1 59-7 5-1-1-12-16-103-12-80-1-5z" fill="#1A2E34"/>
<path transform="translate(646,1010)" d="m0 0 3 3 28 44 16 25 28 44 12 19 28 44 5 9-16 2-4-5-14-22-12-19-42-66-12-19-17-49z" fill="#FBFBFB"/>
<path transform="translate(1278,1155)" d="m0 0m-9 1h9v2l-15 1 12 91v5l25-5h4v2l-177 32h-6l1-2 45-8h5l-10-54-8-47-14 1-52 6h-8l1-2zm-25 5-78 9-1 4 10 60 7 35 2 3 77-14 3-1-1-16-10-76-1-4z" fill="#1A2E34"/>
<path transform="translate(814,1708)" d="m0 0 4 5 5 13 1 5v21l-4 13-5 10-9 11-11 8-11 5-12 3h-12v-15l-2-14 16-2 10-5 7-7 6-12 13-31z" fill="#FBFBFB"/>
<path transform="translate(1030,257)" d="m0 0h19l19 2 15 3 14 4 18 7 21 11 14 10 11 9 11 10 9 11 10 13 11 19 7 15 7 21 4 19 2 20v17l-2 20-4 19-7 21-10 21-9 14-12 16-11 12-8 7-17 13-15 9-19 9-18 6-12 3-4 3 2-4 30-10 25-12 12-8 14-11 12-11 9-11 10-13 10-17 8-17 7-21 4-20 1-8v-36l-4-24-6-20-8-18-8-15-12-17-9-10-7-8-14-12-18-12-19-10-18-7-24-6-15-2h-32l-21 3-19 5-16 6-16 8-15 9-16 13-13 12-9 11-10 13-10 18-8 18-6 20-4 22-1 13v16l2 20 5 22 5 15 9 20 11 18 8 10 12 14 12 11 13 10 15 9 16 8 15 6 19 5 10 2 2 5-3-3-23-5-20-7-16-8-12-7-14-10-20-18-9-11-7-9-10-16-8-16-7-18-6-25-2-18v-26l3-22 5-20 8-21 10-19 10-14 8-10 12-13 14-12 18-12 18-10 21-8 21-5 13-2z" fill="#1A2E34"/>
<path transform="translate(718,1500)" d="m0 0v3l-32 42-5 7 1041 1 142 1v1l-1186 1-12 16-3 7-1 10 3 10 4 6 7 6 7 3 20 1v2h-19l-10-4-8-7-5-10-1-3v-12l3-8 7-11 12-15 12-16 14-18 9-12z" fill="#1A2E34"/>
<path transform="translate(672,1083)" d="m0 0 4 4 11 18 11 17 14 22 12 19 14 22 9 14-4 2-29 3-11-30-22-63-9-25z" fill="#FBFBFB"/>
<path transform="translate(970,1191)" d="m0 0h7l-1 2h-2l23 89 5 19v3h2v2l-123 22h-5l1-2 33-6h4l-14-49-18-67-63 7h-9v-1l31-4zm-3 2-69 8-5 1 9 35 21 76 2 5 52-9 22-4 1-3-23-89-5-19z" fill="#1A2E34"/>
<path transform="translate(719,1220)" d="m0 0h7v1h-5l8 24 34 96v5l11-2h6v2l-86 15h-7l-10-16-17-32-39-78v-2h-7v-1h9l26 52 8 17 10 19 14 26 7 12 11-1 53-9v-3l-19-54-17-48-6-17v-3l-16 2h-9v-1z" fill="#1A2E34"/>
<path transform="translate(1374,1687)" d="m0 0h2l1 2 2 50 3 9-1 5-4 13-2 14-2 2-7-6-9-14-4-10-2-13 1-16 5-15 8-12z" fill="#FBFBFB"/>
<path transform="translate(1376,1679)" d="m0 0h27l1 12 3 6 6 5 5 2 8 1-4 3-12 7-13 12-10 14-4 8-3-3-2-7-2-50z" fill="#CD4F40"/>
<path transform="translate(622,967)" d="m0 0h7l17 48 21 60 19 54 20 57 6 18-7 1-21-60-17-48-19-54-15-42-11-31z" fill="#FBFBFB"/>
<path transform="translate(726,964)" d="m0 0h6l13 43 23 78 26 88 5 17v4l-6 1-14-46-18-61-25-84-11-37z" fill="#FBFBFB"/>
<path transform="translate(822,962)" d="m0 0h7l19 74 23 89 15 57v2l-6 1-3-9-19-72-26-100-10-38z" fill="#FBFBFB"/>
<path transform="translate(775,1215)" d="m0 0 4 2 11 18 14 22 11 18 14 47-1 3-11-18-14-22-24-38-14-22-4-6v-2z" fill="#FBFBFB"/>
<path transform="translate(916,959)" d="m0 0h6l3 9 17 70 20 81 13 52v3h-6l-3-9-22-87-18-73-10-41z" fill="#FBFBFB"/>
<path transform="translate(637,990)" d="m0 0h2l4 10 13 20 16 25 14 22 16 25 42 66 24 38h16l-3 2-62 7h-9l1-2-17-49-17-48-22-63-17-48zm9 20 3 10 17 49 10 16 16 25 28 44 12 19 14 22 5 5 15-2-6-11-13-20-14-22-12-19-42-66-16-25-14-22zm26 73 2 9 17 48 19 54 4 10 29-3 4-2-16-25-12-19-42-66-4-6z" fill="#1A2E34"/>
<path transform="translate(1021,956)" d="m0 0h6l2 6 31 156 8 40v5h-6l-7-32-32-159-2-11z" fill="#FBFBFB"/>
<path transform="translate(1123,953)" d="m0 0h6l2 8 19 125 10 64v2l-6 1-2-6-19-122-10-65z" fill="#FBFBFB"/>
<path transform="translate(618,966)" d="m0 0h4l9 27 19 53 22 63 17 48 16 45v3l5-1v2l-9 1h-10v-1l12-1-7-19-21-60-17-48-13-37-11-18-32-50-3-4-14-1v-1z" fill="#1A2E34"/>
<path transform="translate(1226,950)" d="m0 0h6l2 9 23 171 1 10-1 1h-6l-25-183z" fill="#FBFBFB"/>
<path transform="translate(1320,947)" d="m0 0 5 1 5 49 7 71 6 54v8l-1 1h-5l-1-2-18-172v-9z" fill="#FBFBFB"/>
<path transform="translate(1416,945)" d="m0 0h7l9 135 2 28v12h-6l-1-4-10-141-1-16z" fill="#FBFBFB"/>
<path transform="translate(1519,942)" d="m0 0h7l1 9 7 138v19l-6 1-2-28-7-133z" fill="#FBFBFB"/>
<path transform="translate(1280,1609)" d="m0 0h71v2l-66 1-430 4h-19v-2l34-1z" fill="#1A2E34"/>
<path transform="translate(1274,1635)" d="m0 0h78v2l-74 1-441 4v-2l36-1z" fill="#1A2E34"/>
<path transform="translate(712,1222)" d="m0 0h6l5 12 22 63 16 45-1 5-5-1-9-25-19-54-15-42z" fill="#FBFBFB"/>
<path transform="translate(802,1212)" d="m0 0h3l5 15 26 88 4 14v4l-6 1-22-74-13-44v-3z" fill="#FBFBFB"/>
<path transform="translate(1495,1609)" d="m0 0h15l6 3 3 3 1 3v8l-4 5-4 2h-27l-1-7v-16z" fill="#FBFBFB"/>
<path transform="translate(760,1726)" d="m0 0h8l7 4 4 6v10l-4 7-7 4h-8l-6-3-5-6-1-9 3-7 6-5z" fill="#1A2E34"/>
<path transform="translate(890,1202)" d="m0 0 2 3 19 70 11 39-1 5h-5l-12-42-18-67-1-7z" fill="#FBFBFB"/>
<path transform="translate(667,1778)" d="m0 0h9l7 4 4 8v7l-3 6-6 5-9 1-8-4-4-5-1-9 3-7 6-5z" fill="#1A2E34"/>
<path transform="translate(1458,1771)" d="m0 0h11l6 4 4 8-1 9-6 7-4 2h-9l-8-5-3-6v-8l3-6 4-4z" fill="#1A2E34"/>
<path transform="translate(976,1192)" d="m0 0h4l5 18 23 89v4l-6 1-11-42-17-65v-4z" fill="#FBFBFB"/>
<path transform="translate(1071,1181)" d="m0 0 2 2 21 102-1 3h-5l-2-5-20-98v-3z" fill="#FBFBFB"/>
<path transform="translate(489,970)" d="m0 0h20v1l-14 1 25 51 11 23 19 39 14 29 50 100 3 2h-8l2-1-61-122-11-23-19-39-28-58v-2z" fill="#1A2E34"/>
<path transform="translate(463,971)" d="m0 0h8l-4 2 17 35 12 25 17 35 14 29 25 50 11 23 23 46v3h-6l3-2-32-64-11-23-27-54-11-23-19-39-12-25z" fill="#1A2E34"/>
<path transform="translate(1158,1171)" d="m0 0h5l12 70 6 31-7 1-17-94v-7z" fill="#FBFBFB"/>
<path transform="translate(1254,1160)" d="m0 0h7l12 91-1 5h-5l-1-1-12-91z" fill="#FBFBFB"/>
<path transform="translate(1339,1150)" d="m0 0h7l10 87-1 4h-6l-10-85z" fill="#FBFBFB"/>
<path transform="translate(618,967)" d="m0 0 3 3 19 54-1 3-14-22-16-25-7-11v-1z" fill="#FBFBFB"/>
<path transform="translate(382,744)" d="m0 0h3l21 43 11 23 24 50 28 58 16 33v2h17v1h-26v-1l6-1-12-24-11-23-19-39-11-23-14-29-24-50z" fill="#1A2E34"/>
<path transform="translate(353,743)" d="m0 0h3l18 37 11 23 12 25 28 58 16 33 12 25 4 9 7 1v1h-14l4-1-12-25-16-33-43-89-11-23-14-29z" fill="#1A2E34"/>
<path transform="translate(1432,1139)" d="m0 0h4l6 75v9l-5 1-2-4-6-80z" fill="#FBFBFB"/>
<path transform="translate(1534,1127)" d="m0 0 2 1 4 72v7l-1 1h-6l-4-71v-9z" fill="#FBFBFB"/>
<path transform="translate(793,1213)" d="m0 0 4 1 14 47-1 3-15-24-14-22-1-3z" fill="#FBFBFB"/>
<path transform="translate(282,578)" d="m0 0 14 6 13 9 6 7 12 23 12 25 17 35 11 23 9 19 16 1v1h-22l3-1-21-43-11-23-14-29-13-27-9-10-14-9-10-5z" fill="#1A2E34"/>
<path transform="translate(272,603)" d="m0 0 5 1 14 8 4 5 16 32 11 23 14 29 11 23 9 1v1h-17v-1h5l-11-22-11-23-12-25-18-37-8-7-12-6z" fill="#1A2E34"/>
<path transform="translate(352,567)" d="m0 0 5 2 10 12 10 14 13 18 12 18 11 16 13 19 22 33 19 29 30 1v1h-32l-10-16-32-48-30-44-13-19-14-19-8-10z" fill="#1A2E34"/>
<path transform="translate(357,599)" d="m0 0 5 5 13 18 11 16 13 19 29 43 18 27 17 1v1h-30v-1h10l-10-16-29-43-16-24-11-16-12-17-8-11z" fill="#1A2E34"/>
<path transform="translate(1486,1607)" d="m0 0h25l8 4 3 5v11l-5 6-4 2-28 1v-3l27-1 5-3 2-3v-8l-3-5-6-3h-25z" fill="#1A2E34"/>
<path transform="translate(837,1311)" d="m0 0 3 3 10 16-2 2h-5l-3-8-3-10z" fill="#FBFBFB"/>
</svg>
