<svg xmlns="http://www.w3.org/2000/svg" viewBox="0 0 48 48"><title>shooping cart</title><g id="shooping_cart" data-name="shooping cart"><path d="M17.71,40.29a1,1,0,0,0-1.42,1.42A1,1,0,0,0,17.71,40.29Z"/><path d="M40.71,40.29a1,1,0,0,0-1.42,1.42A1,1,0,0,0,40.71,40.29Z"/><path d="M44,37H16.57a4.38,4.38,0,0,1,0-4H44a1,1,0,0,0,1-.83c3.27-18.49,3.2-17.29,2.8-17.79S47.45,14,40,13.62a6,6,0,0,0-8-6.27V4a1,1,0,0,0-1-1H21a1,1,0,0,0-1,1v8.56l-5.46-.29-.33-2.64a3,3,0,0,0-3-2.63H10A2,2,0,0,0,8,5H3a3,3,0,0,0,0,6H8a2,2,0,0,0,2-2h1.23a1,1,0,0,1,1,.88L15,31.8a6.39,6.39,0,0,0-.27,5.93A4,4,0,1,0,20.44,39H36.56a4,4,0,1,0,6.88,0H44A1,1,0,0,0,44,37ZM3,9A1,1,0,0,1,3,7H8V9Zm35,4.52-6-.32V9.54A4,4,0,0,1,38,13.52Zm-16-.86V5h8v8.09Zm23.82,3.28L43.16,31H16.88L14.79,14.28ZM19,41a2,2,0,1,1-2-2A2,2,0,0,1,19,41Zm23,0a2,2,0,1,1-2-2A2,2,0,0,1,42,41Z"/><path d="M31,27V19a1,1,0,0,0-2,0v8A1,1,0,0,0,31,27Z"/><path d="M37,27.12l1-8a1,1,0,0,0-2-.24l-1,8A1,1,0,0,0,37,27.12Z"/><path d="M23,27.12a1,1,0,0,0,2-.24l-1-8a1,1,0,0,0-2,.24Z"/></g></svg>